<svg width="243" height="180" viewBox="0 0 243 180" fill="none" xmlns="http://www.w3.org/2000/svg">
<path d="M91.1553 52.8125C91.1553 58.7301 88.7551 64.4054 84.4828 68.5898C80.2105 72.7742 74.416 75.125 68.374 75.125C62.3321 75.125 56.5376 72.7742 52.2652 68.5898C47.9929 64.4054 45.5928 58.7301 45.5928 52.8125C45.5928 46.8949 47.9929 41.2196 52.2652 37.0352C56.5376 32.8508 62.3321 30.5 68.374 30.5C74.416 30.5 80.2105 32.8508 84.4828 37.0352C88.7551 41.2196 91.1553 46.8949 91.1553 52.8125V52.8125Z" fill="black"/>
<path d="M22.7812 0.75C16.7393 0.75 10.9448 3.10078 6.67247 7.28518C2.40016 11.4696 0 17.1449 0 23.0625L0 156.938C0 162.855 2.40016 168.53 6.67247 172.715C10.9448 176.899 16.7393 179.25 22.7812 179.25H220.219C226.261 179.25 232.055 176.899 236.328 172.715C240.6 168.53 243 162.855 243 156.938V23.0625C243 17.1449 240.6 11.4696 236.328 7.28518C232.055 3.10078 226.261 0.75 220.219 0.75H22.7812ZM220.219 15.625C222.233 15.625 224.164 16.4086 225.588 17.8034C227.012 19.1982 227.812 21.09 227.812 23.0625V112.312L170.48 83.3509C169.055 82.6521 167.443 82.4097 165.87 82.658C164.298 82.9062 162.844 83.6326 161.716 84.7342L105.371 139.92L64.9721 113.562C63.5135 112.611 61.7639 112.183 60.0201 112.351C58.2762 112.519 56.6453 113.273 55.404 114.484L15.2179 149.5V157.532C15.1997 157.335 15.1896 157.136 15.1875 156.938V23.0625C15.1875 21.09 15.9876 19.1982 17.4117 17.8034C18.8358 16.4086 20.7673 15.625 22.7812 15.625H220.219Z" fill="black"/>
</svg>
